<?xml version="1.0" standalone="no"?>
<!DOCTYPE svg PUBLIC "-//W3C//DTD SVG 20010904//EN"
 "http://www.w3.org/TR/2001/REC-SVG-20010904/DTD/svg10.dtd">
<svg version="1.0" xmlns="http://www.w3.org/2000/svg"
 width="140.000000pt" height="140.000000pt" viewBox="0 0 140.000000 140.000000"
 preserveAspectRatio="xMidYMid meet">
<metadata>
Created by potrace 1.11, written by Peter Selinger 2001-2013
</metadata>
<g transform="translate(0.000000,140.000000) scale(0.100000,-0.100000)"
fill="#000000" stroke="none">
<path d="M590 1383 c-88 -14 -249 -81 -288 -120 -7 -7 -17 -13 -21 -13 -16 0
-115 -109 -155 -170 -44 -67 -85 -154 -93 -199 -2 -14 -8 -44 -13 -66 -10 -42
-7 -210 4 -260 37 -165 124 -296 276 -419 43 -34 156 -86 232 -106 87 -22 249
-21 339 4 55 15 169 63 179 75 3 3 22 17 42 31 21 14 38 28 38 33 0 4 4 7 10
7 22 0 119 121 157 195 63 123 83 213 79 350 -4 117 -23 190 -78 297 -62 120
-190 246 -298 295 -128 57 -157 64 -290 68 -52 1 -106 0 -120 -2z"/>
</g>
</svg>
